<svg width="20" height="20" viewBox="0 0 20 20" fill="none" xmlns="http://www.w3.org/2000/svg">
<g clip-path="url(#clip0_107_306)">
<rect width="20" height="20" fill="white"/>
<circle cx="10" cy="10" r="9.5" stroke="#C3B091"/>
<path d="M7.80567 7.39999V1.58181H10.1011C10.5405 1.58181 10.9155 1.66041 11.2261 1.81761C11.5386 1.97291 11.7763 2.19355 11.9392 2.47954C12.104 2.76363 12.1864 3.09791 12.1864 3.48238C12.1864 3.86874 12.103 4.20113 11.9364 4.47954C11.7697 4.75605 11.5282 4.96818 11.2119 5.1159C10.8975 5.26363 10.5168 5.33749 10.0699 5.33749H8.53294V4.34886H9.87101C10.1059 4.34886 10.3009 4.31666 10.4562 4.25227C10.6115 4.18787 10.7271 4.09128 10.8028 3.96249C10.8805 3.83371 10.9193 3.67367 10.9193 3.48238C10.9193 3.2892 10.8805 3.12632 10.8028 2.99374C10.7271 2.86117 10.6106 2.76079 10.4534 2.69261C10.2981 2.62253 10.1021 2.58749 9.86533 2.58749H9.03578V7.39999H7.80567ZM10.9477 4.75227L12.3937 7.39999H11.0358L9.62101 4.75227H10.9477Z" fill="#61DAFB"/>
<path d="M8.10569 18.5V12.6818H11.958V13.696H9.3358V15.0824H11.7023V16.0966H9.3358V18.5H8.10569Z" fill="#5CB1E7"/>
<path d="M5.36364 9.0625C5.32386 8.92424 5.26799 8.80208 5.19602 8.69602C5.12405 8.58807 5.03599 8.49716 4.93182 8.4233C4.82955 8.34754 4.71212 8.28977 4.57955 8.25C4.44886 8.21023 4.30398 8.19034 4.14489 8.19034C3.84754 8.19034 3.58617 8.2642 3.3608 8.41193C3.13731 8.55966 2.96307 8.77462 2.83807 9.05682C2.71307 9.33712 2.65057 9.67992 2.65057 10.0852C2.65057 10.4905 2.71212 10.8352 2.83523 11.1193C2.95833 11.4034 3.13258 11.6203 3.35795 11.7699C3.58333 11.9176 3.84943 11.9915 4.15625 11.9915C4.43466 11.9915 4.67235 11.9422 4.86932 11.8438C5.06818 11.7434 5.2197 11.6023 5.32386 11.4205C5.42992 11.2386 5.48295 11.0237 5.48295 10.7756L5.73295 10.8125H4.23295V9.88636H6.66761V10.6193C6.66761 11.1307 6.55966 11.5701 6.34375 11.9375C6.12784 12.303 5.83049 12.5852 5.4517 12.7841C5.07292 12.9811 4.6392 13.0795 4.15057 13.0795C3.60511 13.0795 3.12595 12.9593 2.71307 12.7188C2.30019 12.4763 1.97822 12.1326 1.74716 11.6875C1.51799 11.2405 1.40341 10.7102 1.40341 10.0966C1.40341 9.625 1.47159 9.20455 1.60795 8.83523C1.74621 8.46402 1.93939 8.14962 2.1875 7.89205C2.43561 7.63447 2.72443 7.43845 3.05398 7.30398C3.38352 7.16951 3.74053 7.10227 4.125 7.10227C4.45455 7.10227 4.76136 7.15057 5.04545 7.24716C5.32955 7.34186 5.58144 7.47633 5.80114 7.65057C6.02273 7.82481 6.2036 8.0322 6.34375 8.27273C6.4839 8.51136 6.57386 8.77462 6.61364 9.0625H5.36364Z" fill="#0090D1"/>
<path d="M13.3057 13V7.18182H14.5358V9.58239H17.0329V7.18182H18.2602V13H17.0329V10.5966H14.5358V13H13.3057Z" fill="#00E2D1"/>
</g>
<defs>
<clipPath id="clip0_107_306">
<rect width="20" height="20" fill="white"/>
</clipPath>
</defs>
</svg>
