<svg width="20" height="20" viewBox="0 0 20 20" fill="none" xmlns="http://www.w3.org/2000/svg">
<circle cx="10" cy="10" r="9.5" stroke="#C3B091"/>
<path d="M8.94034 5V1.36364H10.169C10.4531 1.36364 10.6863 1.41217 10.8686 1.50923C11.0509 1.60511 11.1858 1.7371 11.2734 1.90518C11.361 2.07327 11.4048 2.26444 11.4048 2.47869C11.4048 2.69295 11.361 2.88293 11.2734 3.04865C11.1858 3.21437 11.0515 3.34458 10.8704 3.43928C10.6893 3.53279 10.4579 3.57955 10.1761 3.57955H9.18182V3.18182H10.1619C10.3561 3.18182 10.5123 3.15341 10.6307 3.09659C10.7502 3.03977 10.8366 2.95928 10.8899 2.85511C10.9444 2.74976 10.9716 2.62429 10.9716 2.47869C10.9716 2.3331 10.9444 2.20585 10.8899 2.09695C10.8355 1.98804 10.7485 1.904 10.6289 1.84482C10.5094 1.78445 10.3513 1.75426 10.1548 1.75426H9.38068V5H8.94034ZM10.652 3.36648L11.5469 5H11.0355L10.1548 3.36648H10.652Z" fill="#61DAFB"/>
<path d="M9.14035 18.5V14.8636H11.3208V15.2543H9.58069V16.483H11.1574V16.8736H9.58069V18.5H9.14035Z" fill="#5CB1E7"/>
<path d="M3.92614 9.5C3.88707 9.38045 3.83558 9.27332 3.77166 9.17862C3.70893 9.08274 3.63376 9.00107 3.54616 8.93359C3.45975 8.86612 3.36151 8.81463 3.25142 8.77912C3.14134 8.74361 3.0206 8.72585 2.8892 8.72585C2.67377 8.72585 2.47786 8.78149 2.30149 8.89276C2.12512 9.00402 1.98485 9.16797 1.88068 9.38459C1.77652 9.60121 1.72443 9.86695 1.72443 10.1818C1.72443 10.4967 1.77711 10.7624 1.88246 10.979C1.98781 11.1957 2.13045 11.3596 2.31037 11.4709C2.49029 11.5821 2.69271 11.6378 2.91761 11.6378C3.12595 11.6378 3.30942 11.5934 3.46804 11.5046C3.62784 11.4147 3.75213 11.288 3.84091 11.1246C3.93087 10.9601 3.97585 10.7666 3.97585 10.544L4.1108 10.5724H3.01705V10.1818H4.40199V10.5724C4.40199 10.8719 4.33807 11.1323 4.21023 11.3537C4.08357 11.575 3.90838 11.7467 3.68466 11.8686C3.46212 11.9893 3.20644 12.0497 2.91761 12.0497C2.59564 12.0497 2.31274 11.974 2.06889 11.8224C1.82623 11.6709 1.63684 11.4555 1.50071 11.1761C1.36577 10.8968 1.2983 10.5653 1.2983 10.1818C1.2983 9.89418 1.33677 9.63553 1.41371 9.40589C1.49183 9.17507 1.60192 8.97857 1.74396 8.81641C1.88601 8.65424 2.0541 8.52995 2.24822 8.44354C2.44235 8.35713 2.65601 8.31392 2.8892 8.31392C3.08097 8.31392 3.25971 8.34292 3.42543 8.40092C3.59233 8.45774 3.74089 8.53883 3.87109 8.64418C4.00249 8.74834 4.11198 8.87322 4.19957 9.01882C4.28717 9.16323 4.34754 9.32363 4.38068 9.5H3.92614Z" fill="#0090D1"/>
<path d="M15.6404 12V8.36364H16.0807V9.98295H18.0196V8.36364H18.46V12H18.0196V10.3736H16.0807V12H15.6404Z" fill="#00E2D1"/>
</svg>
