<svg width="20" height="20" viewBox="0 0 20 20" fill="none" xmlns="http://www.w3.org/2000/svg">
<rect width="20" height="20" fill="white"/>
<circle cx="10" cy="10" r="9.5" stroke="#C3B091"/>
<path d="M13.3057 13V7.18182H15.6011C16.0405 7.18182 16.4155 7.26042 16.7261 7.41761C17.0386 7.57292 17.2763 7.79356 17.4392 8.07955C17.604 8.36364 17.6864 8.69792 17.6864 9.08239C17.6864 9.46875 17.603 9.80114 17.4364 10.0795C17.2697 10.3561 17.0282 10.5682 16.7119 10.7159C16.3975 10.8636 16.0168 10.9375 15.5699 10.9375H14.0329V9.94886H15.371C15.6059 9.94886 15.8009 9.91667 15.9562 9.85227C16.1115 9.78788 16.2271 9.69129 16.3028 9.5625C16.3805 9.43371 16.4193 9.27367 16.4193 9.08239C16.4193 8.8892 16.3805 8.72633 16.3028 8.59375C16.2271 8.46117 16.1106 8.3608 15.9534 8.29261C15.7981 8.22254 15.6021 8.1875 15.3653 8.1875H14.5358V13H13.3057ZM16.4477 10.3523L17.8937 13H16.5358L15.121 10.3523H16.4477Z" fill="#61DAFB"/>
<path d="M5.36364 9.0625C5.32386 8.92424 5.26799 8.80208 5.19602 8.69602C5.12405 8.58807 5.03599 8.49716 4.93182 8.4233C4.82955 8.34754 4.71212 8.28977 4.57955 8.25C4.44886 8.21023 4.30398 8.19034 4.14489 8.19034C3.84754 8.19034 3.58617 8.2642 3.3608 8.41193C3.13731 8.55966 2.96307 8.77462 2.83807 9.05682C2.71307 9.33712 2.65057 9.67992 2.65057 10.0852C2.65057 10.4905 2.71212 10.8352 2.83523 11.1193C2.95833 11.4034 3.13258 11.6203 3.35795 11.7699C3.58333 11.9176 3.84943 11.9915 4.15625 11.9915C4.43466 11.9915 4.67235 11.9422 4.86932 11.8438C5.06818 11.7434 5.2197 11.6023 5.32386 11.4205C5.42992 11.2386 5.48295 11.0237 5.48295 10.7756L5.73295 10.8125H4.23295V9.88636H6.66761V10.6193C6.66761 11.1307 6.55966 11.5701 6.34375 11.9375C6.12784 12.303 5.83049 12.5852 5.4517 12.7841C5.07292 12.9811 4.6392 13.0795 4.15057 13.0795C3.60511 13.0795 3.12595 12.9593 2.71307 12.7188C2.30019 12.4763 1.97822 12.1326 1.74716 11.6875C1.51799 11.2405 1.40341 10.7102 1.40341 10.0966C1.40341 9.625 1.47159 9.20455 1.60795 8.83523C1.74621 8.46402 1.93939 8.14962 2.1875 7.89205C2.43561 7.63447 2.72443 7.43845 3.05398 7.30398C3.38352 7.16951 3.74053 7.10227 4.125 7.10227C4.45455 7.10227 4.76136 7.15057 5.04545 7.24716C5.32955 7.34186 5.58144 7.47633 5.80114 7.65057C6.02273 7.82481 6.2036 8.0322 6.34375 8.27273C6.4839 8.51136 6.57386 8.77462 6.61364 9.0625H5.36364Z" fill="#0090D1"/>
</svg>
