<svg width="20" height="20" viewBox="0 0 20 20" fill="none" xmlns="http://www.w3.org/2000/svg">
<circle cx="10" cy="10" r="9.5" stroke="#C3B091"/>
<path d="M11.5057 8.39999V2.58181H13.8011C14.2405 2.58181 14.6155 2.66041 14.9261 2.81761C15.2386 2.97291 15.4763 3.19355 15.6392 3.47954C15.804 3.76363 15.8864 4.09791 15.8864 4.48238C15.8864 4.86874 15.803 5.20113 15.6364 5.47954C15.4697 5.75605 15.2282 5.96818 14.9119 6.1159C14.5975 6.26363 14.2169 6.33749 13.7699 6.33749H12.233V5.34886H13.571C13.8059 5.34886 14.0009 5.31666 14.1562 5.25227C14.3116 5.18787 14.4271 5.09128 14.5028 4.96249C14.5805 4.83371 14.6193 4.67367 14.6193 4.48238C14.6193 4.2892 14.5805 4.12632 14.5028 3.99374C14.4271 3.86117 14.3106 3.76079 14.1534 3.69261C13.9981 3.62253 13.8021 3.58749 13.5653 3.58749H12.7358V8.39999H11.5057ZM14.6477 5.75227L16.0938 8.39999H14.7358L13.321 5.75227H14.6477Z" fill="#20232A"/>
<path d="M11.5057 18.2V12.3818H15.358V13.396H12.7358V14.7824H15.1023V15.7966H12.7358V18.2H11.5057Z" fill="#5FC8F8"/>
<path d="M5.36364 9.0625C5.32386 8.92424 5.26799 8.80208 5.19602 8.69602C5.12405 8.58807 5.03599 8.49716 4.93182 8.4233C4.82955 8.34754 4.71212 8.28977 4.57955 8.25C4.44886 8.21023 4.30398 8.19034 4.14489 8.19034C3.84754 8.19034 3.58617 8.2642 3.3608 8.41193C3.13731 8.55966 2.96307 8.77462 2.83807 9.05682C2.71307 9.33712 2.65057 9.67992 2.65057 10.0852C2.65057 10.4905 2.71212 10.8352 2.83523 11.1193C2.95833 11.4034 3.13258 11.6203 3.35795 11.7699C3.58333 11.9176 3.84943 11.9915 4.15625 11.9915C4.43466 11.9915 4.67235 11.9422 4.86932 11.8438C5.06818 11.7434 5.2197 11.6023 5.32386 11.4205C5.42992 11.2386 5.48295 11.0237 5.48295 10.7756L5.73295 10.8125H4.23295V9.88636H6.66761V10.6193C6.66761 11.1307 6.55966 11.5701 6.34375 11.9375C6.12784 12.303 5.83049 12.5852 5.4517 12.7841C5.07292 12.9811 4.6392 13.0795 4.15057 13.0795C3.60511 13.0795 3.12595 12.9593 2.71307 12.7188C2.30019 12.4763 1.97822 12.1326 1.74716 11.6875C1.51799 11.2405 1.40341 10.7102 1.40341 10.0966C1.40341 9.625 1.47159 9.20455 1.60795 8.83523C1.74621 8.46402 1.93939 8.14962 2.1875 7.89205C2.43561 7.63447 2.72443 7.43845 3.05398 7.30398C3.38352 7.16951 3.74053 7.10227 4.125 7.10227C4.45455 7.10227 4.76136 7.15057 5.04545 7.24716C5.32955 7.34186 5.58144 7.47633 5.80114 7.65057C6.02273 7.82481 6.2036 8.0322 6.34375 8.27273C6.4839 8.51136 6.57386 8.77462 6.61364 9.0625H5.36364Z" fill="#0090D1"/>
</svg>
